Coordinates
version=1
nRows=16
nColumns=36
inDegrees=yes

Units are S.I. units (second, meters, Newtons, ...)
If the header above contains a line with 'inDegrees', this indicates whether rotational values are in degrees (yes) or radians (no).

endheader
time	pelvis_tilt	pelvis_list	pelvis_rotation	pelvis_tx	pelvis_ty	pelvis_tz	hip_flexion_r	hip_adduction_r	hip_rotation_r	knee_angle_r	knee_angle_r_beta	ankle_angle_r	subtalar_angle_r	mtp_angle_r	hip_flexion_l	hip_adduction_l	hip_rotation_l	knee_angle_l	knee_angle_l_beta	ankle_angle_l	subtalar_angle_l	mtp_angle_l	lumbar_extension	lumbar_bending	lumbar_rotation	arm_flex_r	arm_add_r	arm_rot_r	elbow_flex_r	pro_sup_r	arm_flex_l	arm_add_l	arm_rot_l	elbow_flex_l	pro_sup_l
     14.91666670	      5.44630800	     -3.55296643	     -1.82339281	      0.72043617	      1.00294144	      0.72442521	    -20.07279219	      4.73295158	      3.86307971	      7.50129915	      0.13092237	     14.80239981	      0.07130626	     -7.49999987	     19.18993366	     -4.14015941	      1.39104921	      7.42900785	      0.12966065	      6.09647821	     -3.31320117	     -7.49999987	    -18.88408433	      2.60912484	      5.15307075	     14.31881456	    -19.92346833	     12.84658552	     42.11688046	     77.86686937	      4.68308781	     -8.34792000	     15.09717627	     14.58183377	     88.82387408
     14.93333330	      5.70108788	     -2.95578521	     -1.87863400	      0.72652973	      1.00517434	      0.71910169	    -20.82428155	      3.81677641	      4.06336415	      8.90475401	      0.15541728	     14.21500106	     -0.50016588	     -7.49999987	     18.78876426	     -3.16286745	      1.36726847	      9.55141275	      0.16670360	      4.63403176	     -4.23299061	     -7.49999987	    -18.68722138	      1.60282245	      5.74450006	     12.88468207	    -19.91610663	     11.61285678	     42.24631270	     78.91879608	      5.37852433	     -8.52218894	     16.39410237	     14.22585438	     90.66115892
     14.95000000	      5.84956690	     -2.36524743	     -1.90597021	      0.73592283	      1.00797767	      0.71339236	    -21.26995504	      2.87814324	      4.37105472	     10.69673291	      0.18669321	     12.69427881	     -1.65525789	     -7.49999987	     18.38249778	     -2.22663026	      1.29744871	     11.83003578	      0.20647308	      3.07638627	     -5.18379760	     -7.49999987	    -18.22063606	      0.81233780	      5.49914742	     12.09686841	    -19.56000359	     10.97963088	     41.36909587	     79.43231258	      5.30860394	     -8.65698307	     16.28503018	     13.98881814	     91.14638255
     14.96666670	      5.99190806	     -1.80004151	     -1.81640189	      0.74425365	      1.00974642	      0.70927775	    -21.25286343	      1.97343154	      4.32929291	     13.25790654	      0.23139412	     10.52597404	     -2.81305311	     -7.49999987	     17.85180683	     -1.33191081	      1.37502542	     13.87730175	      0.24220461	      1.78187518	     -5.94184804	     -7.49999987	    -17.85858136	     -0.05416050	      6.36098781	      9.49404592	    -19.31627264	      7.67900667	     41.83117502	     80.90950573	      6.17897381	     -8.65843240	     17.53408622	     13.34018918	     92.79257674
     14.98333330	      5.99704290	     -1.27670431	     -1.71759869	      0.74822499	      1.01044450	      0.70788257	    -20.26404039	      1.14394678	      4.13973983	     17.13061566	      0.29898565	      7.41551143	     -4.59666620	     -7.49999987	     17.31089719	     -0.56276730	      1.40698395	     15.55451700	      0.27147754	      1.02516647	     -6.34587352	     -7.49999987	    -17.33351357	     -0.78113305	      6.00392251	      8.31191246	    -18.73543650	      6.99014375	     40.74833340	     80.08359359	      6.18754720	     -8.89401472	     17.90354371	     13.13147652	     91.47776510
     15.00000000	      6.04638873	     -0.72921284	     -1.64933217	      0.74919105	      1.01119976	      0.70797799	    -18.23369282	      0.25735886	      3.63423043	     22.71276044	      0.39641245	      3.34402195	     -6.53353069	     -7.49999987	     16.55817034	      0.17494293	      1.43797454	     16.84176065	      0.29394418	      0.64357354	     -6.79962365	     -7.49999987	    -17.05482789	     -1.59483793	      5.71697453	      6.97420412	    -18.19731532	      6.21984089	     39.93481392	     79.72398946	      6.16251035	     -9.41261680	     18.73695868	     13.71808563	     90.54907797
     15.01666670	      5.97984098	     -0.14120917	     -1.73826192	      0.75036525	      1.01304927	      0.70804192	    -15.16857374	     -0.73110511	      3.19761561	     29.56286685	      0.51596936	     -2.03892507	     -8.69588524	     -7.49999987	     15.74954917	      0.88267957	      1.32504605	     17.74555075	      0.30971829	      0.79276196	     -7.11395625	     -7.49999987	    -16.78837361	     -2.54338581	      5.85272755	      5.20712163	    -17.57899085	      4.46822379	     39.58836528	     81.30812008	      6.58599029	    -10.10535338	     21.30602870	     14.11997128	     90.65440448
     15.03333330	      5.90861802	      0.47423903	     -2.01823199	      0.75237003	      1.01593618	      0.70770233	    -11.71836935	     -1.79718152	      2.99709002	     36.58971890	      0.63861107	     -8.10328614	    -10.48420769	     -7.49999987	     14.72946364	      1.59220304	      1.13165850	     18.15517352	      0.31686755	      1.30624802	     -7.33191192	     -7.49999987	    -16.57829453	     -3.51942732	      5.69743901	      4.04636503	    -17.04698787	      3.96107428	     38.90013493	     81.40568520	      6.68667582	    -10.67712565	     21.19337649	     14.73452139	     90.49346711
     15.05000000	      5.88069024	      1.02121947	     -2.43755956	      0.75327592	      1.01938318	      0.70735338	     -8.31382619	     -2.73217524	      3.13258190	     43.03873743	      0.75116767	    -13.57604255	    -11.70136489	     -7.49999987	     13.46756396	      2.23281007	      0.97425262	     18.05728769	      0.31515912	      1.96867596	     -7.56690788	     -7.49999987	    -16.49353458	     -4.41884677	      5.60970967	      3.09264074	    -16.52412388	      3.37208686	     38.19072028	     81.52382815	      6.80303736	    -11.31019492	     21.36604400	     15.56187161	     90.44895194
     15.06666670	      5.93959545	      1.38632812	     -2.87617484	      0.75222143	      1.02267596	      0.70644160	     -5.17130599	     -3.31475729	      3.45153959	     48.56659582	      0.84764700	    -17.48511661	    -12.38121701	     -7.49999987	     12.04596053	      2.69564330	      0.85134549	     17.66055192	      0.30823478	      2.55254772	     -7.85861210	     -7.49999987	    -16.67817110	     -5.11907823	      5.54530992	      2.30759064	    -16.12786646	      2.88073931	     37.56652577	     81.66397068	      7.04421735	    -11.87728536	     21.66247391	     16.55158968	     90.42063670
     15.08333330	      6.03848018	      1.58584417	     -3.25940051	      0.75098326	      1.02403020	      0.70437993	     -2.27674744	     -3.57686562	      3.70797304	     53.24737191	      0.92934196	    -19.49337382	    -12.89588442	     -7.49999987	     10.58782773	      3.01301880	      0.78530093	     17.16374590	      0.29956388	      2.99015022	     -8.31626786	     -7.49999987	    -17.00231955	     -5.57111648	      5.48253549	      1.68035262	    -15.78571078	      2.10262408	     36.96224302	     82.05363399	      7.40334386	    -12.47550275	     22.27629320	     17.85112257	     90.39736027
     15.10000000	      6.30665999	      1.64565990	     -3.55267720	      0.75089829	      1.02452747	      0.70200134	      0.17809568	     -3.65180744	      3.75048587	     57.07680131	      0.99617811	    -19.75498417	    -13.36776791	     -7.49999987	      8.92440816	      3.21527476	      0.70311465	     16.62023075	      0.29007775	      3.27852231	     -8.92012657	     -7.49999987	    -17.48051703	     -5.82024641	      5.47368160	      1.17124236	    -15.67715223	      1.75612088	     36.29076112	     82.02758943	      8.05888262	    -12.91118608	     22.43823166	     18.91643625	     89.78116138
     15.11666670	      6.62997166	      1.61155902	     -3.71421898	      0.75131296	      1.02561606	      0.70062785	      2.36716296	     -3.63464148	      3.60776156	     60.11848330	      1.04926547	    -18.41983092	    -13.79486538	     -7.49999987	      7.15384457	      3.32407905	      0.63334869	     16.06678142	      0.28041824	      3.52887359	     -9.38121620	     -7.49999987	    -18.02596576	     -5.91259906	      5.40915365	      0.64000878	    -15.62807487	      1.55782109	     35.63872366	     81.55353663	      8.75929498	    -13.29461516	     22.42357447	     20.10958652	     88.76857648
     15.13333330	      6.73373551	      1.49343236	     -3.64450926	      0.75085773	      1.02689145	      0.69987632	      4.69282834	     -3.53835793	      3.26964026	     62.25910077	      1.08662630	    -15.74927606	    -14.20037470	     -7.49999987	      5.60438802	      3.32715129	      0.74962456	     15.51238329	      0.27074216	      3.74035884	     -9.70846142	     -7.49999987	    -18.17446263	     -5.84875852	      5.35076925	      0.10694726	    -15.51471336	      1.38600687	     34.37076540	     81.75747635	      9.84516675	    -13.49897462	     23.15328961	     20.31145534	     88.34704427
     15.15000000	      6.91301259	      1.29679263	     -3.46151790	      0.74829960	      1.02958299	      0.69895609	      6.94329216	     -3.32928886	      2.95247957	     63.46712456	      1.10771029	    -12.06061552	    -14.42505131	     -7.49999987	      3.89483950	      3.20404862	      0.83076809	     14.73385644	      0.25715431	      3.94953097	     -9.47844375	     -7.49999987	    -18.57418565	     -5.64683723	      5.21618747	     -0.53717147	    -15.47523180	      1.21458373	     33.60811549	     81.61854558	     10.73140232	    -13.82108947	     23.32077182	     21.25372604	     87.66551632
     15.16666670	      7.12274723	      1.05965258	     -3.02037599	      0.74421932	      1.03241350	      0.69703533	      9.18922338	     -3.07077066	      2.52457066	     63.93054883	      1.11579857	     -8.52405751	    -14.79490779	     -7.49999987	      2.22402171	      3.05920068	      1.30633579	     13.93833196	      0.24326979	      4.11680314	     -9.44904429	     -7.49999987	    -19.10007037	     -5.27702393	      4.87882780	     -1.13601031	    -15.45378283	      1.05431599	     33.13868717	     81.18542046	     11.66894691	    -14.10972842	     23.15448948	     22.29301812	     86.95415846
